# Blender v2.93.6 OBJ File: ''
# www.blender.org
mtllib untitled.mtl
o Cube
v 0.361410 1.315572 -0.676982
v 1.000000 -0.346337 -0.346337
v 0.676982 1.000000 0.676982
v 1.000000 -0.346337 0.346337
v -0.361410 1.315572 -0.676982
v -1.000000 -1.000000 -1.000000
v -0.676982 1.000000 0.676982
v -1.000000 -1.000000 1.000000
v 1.000000 0.346337 0.346337
v -1.000000 1.000000 1.000000
v 1.000000 0.346337 -0.346337
v -1.000000 1.000000 -1.000000
v 0.676982 2.246124 0.676982
v -0.676982 2.246124 0.676982
v 0.361410 1.930552 -0.676982
v -0.361410 1.930552 -0.676982
v 1.000000 1.000000 -1.000000
v 1.000000 -1.000000 -1.000000
v 1.000000 1.000000 1.000000
v 1.000000 -1.000000 1.000000
v 1.608287 0.346337 -0.346337
v 1.608287 -0.346337 -0.346337
v 1.608287 0.346337 0.346337
v 1.608287 -0.346337 0.346337
v 1.608287 0.766301 -0.766301
v 1.608287 -0.766301 -0.766301
v 1.608287 0.766301 0.766301
v 1.608287 -0.766301 0.766301
v 3.588327 0.766301 -0.766301
v 3.588327 -0.766301 -0.766301
v 3.588327 0.766301 0.766301
v 3.588327 -0.766301 0.766301
v -0.446398 -0.446398 2.475182
v -0.446398 0.446398 2.475182
v 0.446398 0.446398 2.475182
v 0.446398 -0.446398 2.475182
v -1.000000 -1.000000 1.881394
v -1.000000 1.000000 1.881394
v 1.000000 1.000000 1.881394
v 1.000000 -1.000000 1.881394
v -0.676982 1.000000 -0.676982
v 0.676982 1.000000 -0.676982
v -0.676982 2.246124 -0.676982
v 0.676982 2.246124 -0.676982
v -0.215392 1.461590 -2.565634
v 0.215392 1.461590 -2.565634
v -0.215392 1.784534 -2.565634
v 0.215392 1.784534 -2.565634
v -0.361410 1.315572 -1.495855
v 0.361410 1.315572 -1.495855
v -0.361410 1.930552 -1.495855
v 0.361410 1.930552 -1.495855
v -2.118871 -0.670941 -0.670941
v -2.118871 -0.670941 0.670941
v -2.118871 0.670941 0.670941
v -2.118871 0.670941 -0.670941
v -1.927593 -0.184350 -0.184350
v -1.927593 -0.184350 0.184350
v -1.927593 0.184350 0.184350
v -1.927593 0.184350 -0.184350
vt 0.795176 0.540377
vt 0.795176 0.540377
vt 0.795176 0.540377
vt 0.875000 0.750000
vt 0.625000 0.750000
vt 0.625000 0.750000
vt 0.875000 0.500000
vt 0.875000 0.750000
vt 0.375000 0.500000
vt 0.125000 0.750000
vt 0.125000 0.500000
vt 0.543292 0.581708
vt 0.456708 0.581708
vt 0.456708 0.581708
vt 0.625000 0.250000
vt 0.375000 0.250000
vt 0.834623 0.709623
vt 0.665377 0.709623
vt 0.625000 0.500000
vt 0.665377 0.540377
vt 0.834623 0.540377
vt 0.834623 0.540377
vt 0.665377 0.709623
vt 0.665377 0.540377
vt 0.834623 0.709623
vt 0.543292 0.668292
vt 0.375000 0.750000
vt 0.456708 0.668292
vt 0.456708 0.668292
vt 0.456708 0.668292
vt 0.543292 0.668292
vt 0.543292 0.581708
vt 0.543292 0.668292
vt 0.543292 0.581708
vt 0.543292 0.581708
vt 0.456708 0.581708
vt 0.456708 0.668292
vt 0.456708 0.581708
vt 0.543292 0.668292
vt 0.555800 0.819200
vt 0.444200 0.930800
vt 0.444200 0.819200
vt 0.375000 0.750000
vt 0.375000 0.000000
vt 0.625000 0.000000
vt 0.625000 0.000000
vt 0.125000 0.750000
vt 0.555800 0.930800
vt 0.375000 1.000000
vt 0.625000 1.000000
vt 0.704824 0.540377
vt 0.704824 0.540377
vt 0.776924 0.540377
vt 0.723076 0.540377
vt 0.723076 0.540377
vt 0.704824 0.540377
vt 0.704824 0.540377
vt 0.795176 0.540377
vt 0.776924 0.540377
vt 0.375000 0.250000
vt 0.625000 0.250000
vt 0.625000 0.250000
vt 0.375000 0.000000
vt 0.125000 0.500000
vt 0.625000 0.000000
vt 0.375000 0.250000
vt 0.375000 0.000000
vt 0.125000 0.750000
vt 0.125000 0.500000
vt 0.875000 0.500000
vt 0.875000 0.750000
vt 0.625000 0.000000
vt 0.875000 0.750000
vt 0.375000 0.000000
vt 0.125000 0.750000
vt 0.875000 0.500000
vn -1.0000 0.0000 0.0000
vn 0.0000 1.0000 0.0000
vn -0.2821 0.9594 0.0000
vn 0.0000 -1.0000 0.0000
vn 0.0000 0.0000 -1.0000
vn 1.0000 0.0000 0.0000
vn 0.0000 0.0000 1.0000
vn -0.7314 0.0000 0.6819
vn 0.7314 0.0000 0.6819
vn 0.0000 0.7314 0.6819
vn 0.0000 -0.7314 0.6819
vn 0.0000 -0.9908 -0.1352
vn 0.0000 0.9908 -0.1352
vn -0.9908 0.0000 -0.1352
vn 0.9908 0.0000 -0.1352
vn -0.9307 0.0000 0.3658
vn -0.2821 0.0000 -0.9594
vn -0.2821 0.0000 0.9594
vn -0.2821 -0.9594 0.0000
vn -0.9307 0.3658 0.0000
vn -0.9307 -0.3658 0.0000
vn -0.9307 0.0000 -0.3658
usemtl Material
s off
f 16/1/1 49/2/1 5/3/1
f 10/4/2 39/5/2 19/6/2
f 12/7/3 55/8/3 10/4/3
f 18/9/4 8/10/4 6/11/4
f 11/12/5 22/13/5 2/14/5
f 12/15/5 18/9/5 6/16/5
f 7/17/2 19/6/2 3/18/2
f 3/18/2 17/19/2 42/20/2
f 41/21/2 10/4/2 7/17/2
f 42/20/2 12/7/2 41/21/2
f 43/22/2 13/23/2 44/24/2
f 42/20/6 13/23/6 3/18/6
f 7/17/1 43/22/1 41/21/1
f 3/18/7 14/25/7 7/17/7
f 2/14/6 17/19/6 11/12/6
f 9/26/6 20/27/6 4/28/6
f 11/12/6 19/6/6 9/26/6
f 4/28/6 18/9/6 2/14/6
f 22/13/1 28/29/1 24/30/1
f 2/14/4 24/30/4 4/28/4
f 4/28/7 23/31/7 9/26/7
f 9/26/2 21/32/2 11/12/2
f 27/33/2 29/34/2 25/35/2
f 24/30/1 27/33/1 23/31/1
f 23/31/1 25/35/1 21/32/1
f 21/32/1 26/36/1 22/13/1
f 29/34/6 32/37/6 30/38/6
f 25/35/5 30/38/5 26/36/5
f 26/36/4 32/37/4 28/29/4
f 28/29/7 31/39/7 27/33/7
f 35/40/7 33/41/7 36/42/7
f 19/6/6 40/43/6 20/27/6
f 8/44/1 38/45/1 10/46/1
f 20/27/4 37/47/4 8/10/4
f 34/48/8 37/49/8 33/41/8
f 36/42/9 39/5/9 35/40/9
f 35/40/10 38/50/10 34/48/10
f 33/41/11 40/43/11 36/42/11
f 1/51/5 41/21/5 5/3/5
f 16/1/5 44/24/5 15/52/5
f 5/3/5 43/22/5 16/1/5
f 15/52/5 42/20/5 1/51/5
f 45/53/5 48/54/5 46/55/5
f 5/3/4 50/56/4 1/51/4
f 1/51/6 52/57/6 15/52/6
f 15/52/2 51/58/2 16/1/2
f 46/55/12 49/2/12 45/53/12
f 47/59/13 52/57/13 48/54/13
f 45/53/14 51/58/14 47/59/14
f 48/54/15 50/56/15 46/55/15
f 53/60/16 60/61/16 56/62/16
f 6/16/17 56/62/17 12/15/17
f 10/46/18 54/63/18 8/44/18
f 8/10/19 53/64/19 6/11/19
f 59/65/1 57/66/1 58/67/1
f 54/68/20 57/69/20 53/64/20
f 56/70/21 59/71/21 55/8/21
f 55/72/22 58/67/22 54/63/22
f 16/1/1 51/58/1 49/2/1
f 10/4/2 38/73/2 39/5/2
f 12/7/3 56/70/3 55/8/3
f 18/9/4 20/27/4 8/10/4
f 11/12/5 21/32/5 22/13/5
f 12/15/5 17/19/5 18/9/5
f 7/17/2 10/4/2 19/6/2
f 3/18/2 19/6/2 17/19/2
f 41/21/2 12/7/2 10/4/2
f 42/20/2 17/19/2 12/7/2
f 43/22/2 14/25/2 13/23/2
f 42/20/6 44/24/6 13/23/6
f 7/17/1 14/25/1 43/22/1
f 3/18/7 13/23/7 14/25/7
f 2/14/6 18/9/6 17/19/6
f 9/26/6 19/6/6 20/27/6
f 11/12/6 17/19/6 19/6/6
f 4/28/6 20/27/6 18/9/6
f 22/13/1 26/36/1 28/29/1
f 2/14/4 22/13/4 24/30/4
f 4/28/7 24/30/7 23/31/7
f 9/26/2 23/31/2 21/32/2
f 27/33/2 31/39/2 29/34/2
f 24/30/1 28/29/1 27/33/1
f 23/31/1 27/33/1 25/35/1
f 21/32/1 25/35/1 26/36/1
f 29/34/6 31/39/6 32/37/6
f 25/35/5 29/34/5 30/38/5
f 26/36/4 30/38/4 32/37/4
f 28/29/7 32/37/7 31/39/7
f 35/40/7 34/48/7 33/41/7
f 19/6/6 39/5/6 40/43/6
f 8/44/1 37/74/1 38/45/1
f 20/27/4 40/43/4 37/47/4
f 34/48/8 38/50/8 37/49/8
f 36/42/9 40/43/9 39/5/9
f 35/40/10 39/5/10 38/50/10
f 33/41/11 37/49/11 40/43/11
f 1/51/5 42/20/5 41/21/5
f 16/1/5 43/22/5 44/24/5
f 5/3/5 41/21/5 43/22/5
f 15/52/5 44/24/5 42/20/5
f 45/53/5 47/59/5 48/54/5
f 5/3/4 49/2/4 50/56/4
f 1/51/6 50/56/6 52/57/6
f 15/52/2 52/57/2 51/58/2
f 46/55/12 50/56/12 49/2/12
f 47/59/13 51/58/13 52/57/13
f 45/53/14 49/2/14 51/58/14
f 48/54/15 52/57/15 50/56/15
f 53/60/16 57/66/16 60/61/16
f 6/16/17 53/60/17 56/62/17
f 10/46/18 55/72/18 54/63/18
f 8/10/19 54/68/19 53/64/19
f 59/65/1 60/61/1 57/66/1
f 54/68/20 58/75/20 57/69/20
f 56/70/21 60/76/21 59/71/21
f 55/72/22 59/65/22 58/67/22
